<?xml version="1.0" standalone="no"?>
<!DOCTYPE svg PUBLIC "-//W3C//DTD SVG 20010904//EN"
 "http://www.w3.org/TR/2001/REC-SVG-20010904/DTD/svg10.dtd">
<svg version="1.0" xmlns="http://www.w3.org/2000/svg"
 width="75.000000pt" height="75.000000pt" viewBox="0 0 75.000000 75.000000"
 preserveAspectRatio="xMidYMid meet">

<g transform="translate(0.000000,75.000000) scale(0.100000,-0.100000)"
fill="#000000" stroke="none">
<path d="M302 740 c-63 -13 -159 -68 -199 -114 -20 -23 -47 -66 -62 -96 -23
-48 -26 -68 -26 -155 0 -82 4 -109 22 -148 31 -66 115 -152 182 -184 50 -25
67 -28 156 -28 87 0 107 3 155 26 85 41 135 90 177 175 33 69 37 83 37 157 -1
115 -28 183 -108 263 -45 44 -77 67 -120 83 -68 25 -153 34 -214 21z m233 -42
c65 -33 130 -98 163 -163 37 -72 43 -206 12 -287 -28 -74 -93 -146 -172 -189
-59 -32 -69 -34 -158 -34 -82 0 -103 4 -152 27 -73 34 -142 103 -176 176 -23
49 -27 70 -27 152 0 89 2 99 34 158 42 76 114 144 184 172 77 30 222 24 292
-12z"/>
<path d="M385 443 l59 -63 -59 -62 -60 -63 65 63 65 62 -65 63 -65 62 60 -62z"/>
</g>
</svg>
